<?xml version="1.0" standalone="no"?>
<!DOCTYPE svg PUBLIC "-//W3C//DTD SVG 20010904//EN"
 "http://www.w3.org/TR/2001/REC-SVG-20010904/DTD/svg10.dtd">
<svg version="1.0" xmlns="http://www.w3.org/2000/svg"
 width="713.000000pt" height="713.000000pt" viewBox="0 0 713.000000 713.000000"
 preserveAspectRatio="xMidYMid meet">
<metadata>
Created by potrace 1.14, written by Peter Selinger 2001-2017
</metadata>
<g transform="translate(0.000000,713.000000) scale(0.100000,-0.100000)"
fill="#000000" stroke="none">
<path d="M3338 7125 c-1 -2 -41 -6 -88 -9 -94 -7 -174 -18 -370 -51 -92 -16
-339 -82 -466 -126 -626 -216 -1163 -586 -1591 -1096 -112 -133 -323 -436
-323 -463 0 -5 -3 -10 -7 -10 -5 0 -13 -10 -19 -23 -6 -12 -36 -70 -68 -129
-182 -345 -306 -728 -371 -1149 -39 -249 -41 -717 -6 -964 19 -128 22 -149 42
-250 77 -381 226 -769 428 -1107 72 -121 225 -345 268 -394 10 -10 50 -58 90
-105 175 -210 401 -416 673 -612 42 -30 192 -127 196 -127 2 0 22 -11 44 -25
267 -169 754 -353 1110 -419 47 -9 94 -18 105 -20 11 -2 45 -7 76 -10 31 -4
66 -9 78 -11 136 -26 715 -26 850 0 13 2 49 7 80 11 31 3 58 8 61 9 3 2 30 6
60 10 30 4 58 9 61 11 3 2 21 6 40 9 133 23 496 132 613 184 22 11 69 31 104
45 119 50 307 151 460 247 383 241 718 557 988 930 38 52 74 104 81 115 143
226 221 371 296 544 108 249 192 526 242 795 12 69 13 76 31 220 26 203 25
631 -1 835 -12 95 -27 195 -30 200 -2 3 -6 26 -10 50 -20 142 -102 426 -182
630 -217 555 -612 1095 -1066 1458 -40 31 -74 60 -77 63 -17 20 -246 173 -355
239 -339 202 -715 348 -1095 425 -166 34 -183 37 -398 61 -53 6 -548 14 -554
9z m-728 -2149 c262 -19 543 -145 705 -318 88 -92 122 -148 154 -252 68 -220
-31 -392 -231 -402 -134 -7 -206 38 -264 166 -59 128 -82 167 -136 225 -71 77
-151 120 -248 133 -373 50 -679 -218 -751 -657 -29 -180 -31 -453 -4 -621 74
-454 383 -725 761 -669 149 23 263 113 336 269 99 211 136 246 268 254 85 5
146 -14 202 -64 60 -52 87 -112 89 -192 3 -191 -110 -375 -317 -518 -92 -64
-282 -152 -354 -165 -7 -1 -70 -14 -100 -20 -143 -30 -363 -24 -544 15 -394
86 -684 306 -845 643 -61 128 -92 232 -126 422 -25 138 -24 494 0 655 54 346
199 623 425 811 202 167 475 270 760 285 63 4 117 8 118 10 2 1 9 1 15 -1 7
-2 46 -6 87 -9z m2530 -25 c127 -26 131 -27 203 -52 164 -57 290 -134 402
-244 93 -91 119 -145 120 -246 0 -101 -28 -163 -93 -204 -54 -35 -58 -36 -140
-40 -113 -6 -177 26 -321 159 -175 163 -298 211 -531 209 -140 -1 -289 -48
-364 -114 -65 -57 -88 -103 -89 -178 -1 -93 29 -148 116 -214 91 -70 234 -125
528 -206 424 -116 638 -218 800 -380 138 -139 193 -280 192 -492 -4 -432 -368
-747 -943 -815 -123 -15 -439 -9 -537 10 -11 3 -38 7 -59 10 -81 13 -224 56
-314 95 -333 143 -517 365 -467 564 29 117 118 187 238 187 126 0 204 -40 359
-185 191 -178 310 -232 530 -241 230 -9 410 55 504 177 42 55 58 104 58 177 0
114 -61 196 -192 262 -66 33 -260 105 -312 115 -42 9 -307 78 -353 92 -151 48
-345 138 -443 205 -74 51 -170 148 -215 217 -48 73 -87 152 -87 177 0 8 -4 23
-9 32 -12 24 -23 104 -26 187 -7 285 170 518 496 652 162 66 316 99 509 109
63 4 116 7 117 8 9 7 248 -17 323 -33z"/>
</g>
</svg>
